<svg width="120" height="30" viewBox="0 0 838 248" xmlns="http://www.w3.org/2000/svg" xmlns:xlink="http://www.w3.org/1999/xlink" overflow="hidden"><g transform="translate(-221 -434)"><path d="M359.468 491.75 361.019 493.814C369.214 507.141 374 523.207 374 540.5 374 586.616 339.969 624 297.99 624 266.506 624 239.492 602.971 227.953 573.002L226.539 567.998 245.644 557.039 247.798 565.434C255.835 588.425 274.649 604.558 296.576 604.558 325.813 604.558 349.514 575.878 349.514 540.5 349.514 527.233 346.182 514.908 340.473 504.685L339.474 503.219ZM297.99 457C313.732 457 328.357 462.257 340.488 471.261L341.202 471.908 320.603 483.723 317.182 481.476C310.849 478.235 303.886 476.442 296.576 476.442 274.649 476.442 255.835 492.575 247.798 515.566L244.815 527.195 222 540.281 223.524 523.672C230.612 485.622 261.258 457 297.99 457Z" fill="#4F8A8B" fill-rule="evenodd"/><text fill="#FFFFFF" font-family="Avenir Next LT Pro Light,Avenir Next LT Pro Light_MSFontService,sans-serif" font-weight="300" font-size="117" transform="translate(396.419 582)">OUTLAINE</text></g></svg>