<svg width="120" height="30" viewBox="0 0 838 248"  xmlns="http://www.w3.org/2000/svg" xmlns:xlink="http://www.w3.org/1999/xlink" overflow="hidden"><g transform="translate(-221 -66)"><path d="M359.468 124.75 361.019 126.814C369.214 140.141 374 156.207 374 173.5 374 219.616 339.969 257 297.99 257 266.506 257 239.492 235.971 227.953 206.002L226.539 200.998 245.644 190.039 247.798 198.434C255.835 221.425 274.649 237.558 296.576 237.558 325.813 237.558 349.514 208.878 349.514 173.5 349.514 160.233 346.182 147.908 340.473 137.685L339.474 136.219ZM297.99 90C313.732 90 328.357 95.2571 340.488 104.261L341.202 104.908 320.603 116.723 317.182 114.476C310.849 111.235 303.886 109.442 296.576 109.442 274.649 109.442 255.835 125.575 247.798 148.566L244.815 160.195 222 173.281 223.524 156.672C230.612 118.622 261.258 90 297.99 90Z" fill="#4F8A8B" fill-rule="evenodd"/><text fill="#444444" font-family="Avenir Next LT Pro Light,Avenir Next LT Pro Light_MSFontService,sans-serif" font-weight="300" font-size="117" transform="translate(396.419 214)">OUTLAINE</text></g></svg>