<svg width="166" height="168" xmlns="http://www.w3.org/2000/svg" xmlns:xlink="http://www.w3.org/1999/xlink" overflow="hidden"><g transform="translate(-528 -57)"><path d="M677.226 91.9584 678.908 94.0348C687.805 107.441 693 123.603 693 141 693 187.392 656.059 225 610.489 225 576.312 225 546.988 203.845 534.462 173.697L532.927 168.662 553.667 157.638 556.005 166.083C564.728 189.212 585.151 205.441 608.954 205.441 640.692 205.441 666.42 176.59 666.42 141 666.42 127.654 662.802 115.255 656.606 104.97L655.521 103.496ZM610.489 57C627.578 57 643.453 62.2886 656.622 71.3459L657.397 71.9972 635.036 83.8834 631.323 81.6229C624.448 78.3619 616.889 76.5588 608.954 76.5588 585.151 76.5588 564.728 92.7876 556.005 115.917L552.766 127.615 528 140.78 529.655 124.071C537.348 85.7937 570.616 57 610.489 57Z" fill="#4F8A8B" fill-rule="evenodd"/></g></svg>